# xmcd
#
# Track frame offsets:
#	150
#	16271
#	31413
#	47950
#	63878
#	78677
#	95884
#	112901
#	127162
#	145641
#	164312
#
# Disc length: 2395 seconds
#
# Revision: 1
# Processed by: cddbd v1.5.2PL0 Copyright (c) Steve Scherf et al.
# Submitted via: audiograbber 1.83.01
#
DISCID=9309590b
DTITLE=Stina Girs - Sydän Edellä
DYEAR=2011
DGENRE=Country
TTITLE0=Anna mun mennä
TTITLE1=Uusivuosi
TTITLE2=Vahtikoira
TTITLE3=Kirje
TTITLE4=Suljen silmät
TTITLE5=Sä teet historiaa
TTITLE6=Sydän edellä
TTITLE7=Valmis
TTITLE8=Sä et voi
TTITLE9=Leikisti
TTITLE10=Merenneito
EXTD=
EXTT0=
EXTT1=
EXTT2=
EXTT3=
EXTT4=
EXTT5=
EXTT6=
EXTT7=
EXTT8=
EXTT9=
EXTT10=
PLAYORDER=
